PathFileType	4	(X/Y/Z)	RBDS025\RBDS025runT35.trc
DataRate	CameraRate	NumFrames	NumMarkers	Units	OrigDataRate	OrigDataStartFrame	OrigNumFrames
150.000000	150.000000	4	33	mm	150.000000	0	4500
Frame#	Time	L.ASIS			L.Heel.Bottom			L.Heel.Lateral			L.Heel.Top			L.Iliac.Crest			L.MT1			L.MT5			L.PSIS			L.Shank.Bottom.Lateral			L.Shank.Bottom.Medial			L.Shank.Top.Lateral			L.Shank.Top.Medial			L.Thigh.Bottom.Lateral			L.Thigh.Bottom.Medial			L.Thigh.Top.Lateral			L.Thigh.Top.Medial			R.ASIS			R.ASY			R.Heel.Bottom			R.Heel.Lateral			R.Heel.Top			R.Iliac.Crest			R.MT1			R.MT5			R.PSIS			R.Shank.Bottom.Lateral			R.Shank.Bottom.Medial			R.Shank.Top.Lateral			R.Shank.Top.Medial			R.Thigh.Bottom.Lateral			R.Thigh.Bottom.Medial			R.Thigh.Top.Lateral			R.Thigh.Top.Medial			
		X1	Y1	Z1	X2	Y2	Z2	X3	Y3	Z3	X4	Y4	Z4	X5	Y5	Z5	X6	Y6	Z6	X7	Y7	Z7	X8	Y8	Z8	X9	Y9	Z9	X10	Y10	Z10	X11	Y11	Z11	X12	Y12	Z12	X13	Y13	Z13	X14	Y14	Z14	X15	Y15	Z15	X16	Y16	Z16	X17	Y17	Z17	X18	Y18	Z18	X19	Y19	Z19	X20	Y20	Z20	X21	Y21	Z21	X22	Y22	Z22	X23	Y23	Z23	X24	Y24	Z24	X25	Y25	Z25	X26	Y26	Z26	X27	Y27	Z27	X28	Y28	Z28	X29	Y29	Z29	X30	Y30	Z30	X31	Y31	Z31	X32	Y32	Z32	X33	Y33	Z33	

1	0	2161.326853057009	887.0047593925992	833.465258972837	1857.422424922967	43.13205597071719	938.0336034593072	1880.844080314573	64.74734194989266	892.6381860012802	1873.074869236811	85.50975942535489	940.8131634422725	2083.218284043664	959.6799773175858	782.8169524442062	2070.053079212629	33.47768682240302	945.244178253191	2023.533671224685	43.11731373799732	839.5247758276385	2005.565133027366	952.9767763199552	894.4430048682534	1995.736961867694	161.7712896801659	867.6753163004601	1951.849758353337	191.8456258671324	884.8068330101323	2030.782981873293	229.6755764293036	841.8035007922679	1987.977962996801	259.192362160058	857.0439071677746	2126.488575153762	542.8271004581875	785.9803758305002	2063.927674326903	527.1990115222997	819.2503413860519	2091.626639775315	645.006338848023	769.9652442860737	2033.964784517667	631.7696581232667	806.6090543008338	2179.258993730477	879.5819066928887	1033.417239164343	1788.729304399975	258.8784353465806	1037.639869188407	1731.17523928912	439.1038138454098	1003.32747372503	1755.16521028537	418.4187807258398	1047.803384507228	1774.484987865633	429.3930826676135	1004.536419907973	2127.417696687165	941.5251950852298	1080.532301518572	1746.9200624243	225.100002193529	997.6458034902322	1742.423049690813	269.1973302963297	1101.210922613285	2016.30918455215	944.1368501711888	996.353059906608	1891.045309734731	390.4440803437653	1069.429574983637	1886.843540920938	429.1810746225467	1035.961478069069	1973.645717479241	408.8499624916432	1076.770414422086	1964.851098403836	448.7600294931058	1042.754342963349	2161.437904847253	518.2102089873636	1095.488426116272	2101.798216653517	501.6303685454116	1060.052638559986	2124.80919980921	621.6909789448537	1109.137452690034	2066.256625045633	604.7420741079646	1077.257384663819	
2	0.006666666666666667	2160.827795173106	890.114503412687	832.7195378480268	1834.521494095795	48.05732661218692	937.716042056158	1858.388531352961	68.5330058683646	891.982212151855	1850.878163375185	90.25625404547694	939.7835950349972	2084.842570164738	963.6177135371797	783.5833006749526	2046.136293364297	33.620832632504	945.4350752771813	2000.417690923898	43.13864035238136	839.4607120650409	2005.700219159542	956.9272396041985	894.3575708872662	1974.533799159192	165.0112533648308	867.1325710277575	1931.054881129665	195.6231275094317	884.4166061765217	2010.5526743927	232.5028977153274	841.5823344365626	1967.973316306684	262.6000256030751	856.6874387519778	2114.745762088933	544.5798778658065	786.8906553084237	2051.572558890114	531.4550720237671	819.9504604570562	2083.816439339698	647.8658370686005	770.5330772105943	2025.715886463976	636.9123348019833	807.1372417210903	2179.425536602104	884.1295305073586	1032.678069397428	1811.760282131655	247.5442504250958	1036.294890082732	1742.548809574687	423.1497847545791	1003.889030591699	1767.81044621902	403.9823496426272	1047.943617583916	1786.403173937771	416.8568597610215	1004.657445835365	2126.977412878506	946.5329677928052	1080.294262134345	1772.682873022955	211.5669280737458	995.7754252066051	1764.834935706713	253.9243109408398	1099.425774856818	2016.312086929637	948.7269393592921	996.4034282601028	1906.041760418529	383.8254597589168	1068.987760839476	1899.472361064139	422.6712938643294	1036.143672178704	1987.365453099217	406.6880129316764	1076.565441690705	1976.227382076276	446.4439892624425	1043.129383241353	2172.014548746228	526.8266915125721	1095.30322697197	2113.37221851193	508.0432483993157	1059.619175068215	2131.446423925188	628.6345715707538	1109.215355295596	2073.713554527886	609.3295036762448	1077.702592145029	
3	0.01333333333333333	2160.439000751047	893.2512662056537	832.053518648727	1811.764329208326	53.27133619027984	937.3913007473072	1836.073409614801	72.5503129672573	891.3204963018399	1828.885747519165	95.24109620877783	938.7437350017083	2086.512144834695	967.5869407677741	784.3063754567463	2022.239925041735	33.79854791014203	945.5929133445077	1977.32148076417	43.20166671387512	839.3535599799951	2005.944293655161	960.9430239440803	894.2700518528861	1953.432589348521	168.4652644512308	866.482846740238	1910.390152248854	199.5858965438802	883.9985836793991	1990.378957787028	235.5658452933658	841.2481721722245	1948.051705328953	266.2147319938207	856.3003580128795	2103.071152733874	546.5384467833189	787.6872432233773	2039.305594163014	535.9194328228484	820.5214933847421	2076.098687494734	650.8883434520171	771.0325358683658	2017.568359659716	642.2200580016832	807.5687488857002	2179.639785146646	888.7648322817549	1031.987800259567	1835.084168784643	236.2389137747438	1034.943599392433	1754.280011202717	406.8913249805298	1004.301578646619	1780.767806466564	389.2621481258201	1047.976115043914	1798.585656002897	404.0132015991077	1004.693216018083	2126.682999194144	951.6559393320508	1080.084563603513	1798.804431075306	198.1325132862218	993.8838776010028	1787.632968700622	238.6589887284098	1097.61011500623	2016.380738896867	953.3961620168888	996.457262535791	1921.094858084073	377.1180061799199	1068.485771788997	1912.154350034065	415.9796331148233	1036.216033687512	2001.00720609245	404.4664301463253	1076.295153627521	1987.521905734953	443.9693344955944	1043.396286024469	2182.346193171096	535.4886355321042	1095.100765505561	2124.680107692079	514.588240103682	1059.150652749727	2137.95638845225	635.630313196555	1109.312322503207	2081.032028253881	614.0645195210948	1078.115446422869	
4	0.02	2160.264260110848	896.4392401863939	831.5430014215436	1789.316792751852	59.04540435517497	937.0395433916591	1814.056755117414	77.00904423113893	890.6344548432693	1807.318755090853	100.6826029447193	937.6648538808337	2088.293645076296	971.6156973304238	784.9494623935237	1998.401956474921	34.03372508110431	945.6799274411466	1954.265937080969	43.32598117891137	839.1671822711321	2006.40022843726	965.0824148274183	894.1727662085286	1932.538347682909	172.3293848955686	865.6171346612056	1889.982407809116	203.8918449461625	883.5216972136998	1970.313750579849	239.088817784136	840.6948210550354	1928.286489871866	270.2229344361596	855.8579563660373	2091.489289651893	548.9126694241894	788.2709986135727	2027.178272372717	540.8049721799022	820.8640839175984	2068.524074307212	654.2440055007279	771.4083913054086	2009.589369887284	647.8649075257305	807.8362518723869	2179.944558407968	893.5759827722162	1031.402106022183	1858.985066983555	224.9473236628669	1033.585238141834	1766.680065689018	390.009177022849	1004.434374855575	1794.306242774579	373.9699399255911	1047.802299496563	1811.265561982575	390.5489304778484	1004.558833591279	2126.656490144384	957.0158826513751	1079.928958365958	1825.640117789255	184.8244532274419	991.9704273468786	1811.170609860759	223.371011813436	1095.752830361318	2016.577201350658	958.2203843495852	996.5116886120956	1936.263251819436	370.2126950522772	1067.866548818078	1924.940953530589	408.9137395167991	1036.080752911876	2014.507649974407	402.11096506683	1075.896606063216	1998.664629309774	441.1725263378959	1043.455575065117	2192.217457196726	544.2508247042929	1094.853286803861	2135.482848883479	521.391255105034	1058.616263405647	2144.228940495138	642.7423915013979	1109.430944038614	2088.087989929062	619.0922371298767	1078.462822261607	
